<svg width="84" height="40" viewBox="0 0 84 40" fill="none" xmlns="http://www.w3.org/2000/svg">
<path d="M3.12891 4.4375H6.10547L10.4883 16.9648L14.8711 4.4375H17.8477L11.6836 21.5H9.29297L3.12891 4.4375ZM1.52344 4.4375H4.48828L5.02734 16.6484V21.5H1.52344V4.4375ZM16.4883 4.4375H19.4648V21.5H15.9492V16.6484L16.4883 4.4375ZM26.0977 20.0703L29.4609 8.82031H33.082L27.9844 23.4102C27.875 23.7305 27.7266 24.0742 27.5391 24.4414C27.3594 24.8086 27.1133 25.1562 26.8008 25.4844C26.4961 25.8203 26.1094 26.0938 25.6406 26.3047C25.1797 26.5156 24.6133 26.6211 23.9414 26.6211C23.6211 26.6211 23.3594 26.6016 23.1562 26.5625C22.9531 26.5234 22.7109 26.4688 22.4297 26.3984V23.9258C22.5156 23.9258 22.6055 23.9258 22.6992 23.9258C22.793 23.9336 22.8828 23.9375 22.9688 23.9375C23.4141 23.9375 23.7773 23.8867 24.0586 23.7852C24.3398 23.6836 24.5664 23.5273 24.7383 23.3164C24.9102 23.1133 25.0469 22.8477 25.1484 22.5195L26.0977 20.0703ZM24.6914 8.82031L27.4453 18.0078L27.9258 21.582L25.6289 21.8281L21.0703 8.82031H24.6914ZM48.5273 4.4375V21.5H45.0117L38.1562 10.0625V21.5H34.6406V4.4375H38.1562L45.0234 15.8867V4.4375H48.5273ZM57.2109 21.7344C56.2266 21.7344 55.3438 21.5781 54.5625 21.2656C53.7812 20.9453 53.1172 20.5039 52.5703 19.9414C52.0312 19.3789 51.6172 18.7266 51.3281 17.9844C51.0391 17.2344 50.8945 16.4375 50.8945 15.5938V15.125C50.8945 14.1641 51.0312 13.2852 51.3047 12.4883C51.5781 11.6914 51.9688 11 52.4766 10.4141C52.9922 9.82812 53.6172 9.37891 54.3516 9.06641C55.0859 8.74609 55.9141 8.58594 56.8359 8.58594C57.7344 8.58594 58.5312 8.73438 59.2266 9.03125C59.9219 9.32812 60.5039 9.75 60.9727 10.2969C61.4492 10.8438 61.8086 11.5 62.0508 12.2656C62.293 13.0234 62.4141 13.8672 62.4141 14.7969V16.2031H52.3359V13.9531H59.0977V13.6953C59.0977 13.2266 59.0117 12.8086 58.8398 12.4414C58.6758 12.0664 58.4258 11.7695 58.0898 11.5508C57.7539 11.332 57.3242 11.2227 56.8008 11.2227C56.3555 11.2227 55.9727 11.3203 55.6523 11.5156C55.332 11.7109 55.0703 11.9844 54.8672 12.3359C54.6719 12.6875 54.5234 13.1016 54.4219 13.5781C54.3281 14.0469 54.2812 14.5625 54.2812 15.125V15.5938C54.2812 16.1016 54.3516 16.5703 54.4922 17C54.6406 17.4297 54.8477 17.8008 55.1133 18.1133C55.3867 18.4258 55.7148 18.668 56.0977 18.8398C56.4883 19.0117 56.9297 19.0977 57.4219 19.0977C58.0312 19.0977 58.5977 18.9805 59.1211 18.7461C59.6523 18.5039 60.1094 18.1406 60.4922 17.6562L62.1328 19.4375C61.8672 19.8203 61.5039 20.1875 61.043 20.5391C60.5898 20.8906 60.043 21.1797 59.4023 21.4062C58.7617 21.625 58.0312 21.7344 57.2109 21.7344ZM71.1914 17.9961C71.1914 17.7539 71.1211 17.5352 70.9805 17.3398C70.8398 17.1445 70.5781 16.9648 70.1953 16.8008C69.8203 16.6289 69.2773 16.4727 68.5664 16.332C67.9258 16.1914 67.3281 16.0156 66.7734 15.8047C66.2266 15.5859 65.75 15.3242 65.3438 15.0195C64.9453 14.7148 64.6328 14.3555 64.4062 13.9414C64.1797 13.5195 64.0664 13.0391 64.0664 12.5C64.0664 11.9688 64.1797 11.4688 64.4062 11C64.6406 10.5312 64.9727 10.1172 65.4023 9.75781C65.8398 9.39062 66.3711 9.10547 66.9961 8.90234C67.6289 8.69141 68.3398 8.58594 69.1289 8.58594C70.2305 8.58594 71.1758 8.76172 71.9648 9.11328C72.7617 9.46484 73.3711 9.94922 73.793 10.5664C74.2227 11.1758 74.4375 11.8711 74.4375 12.6523H71.0625C71.0625 12.3242 70.9922 12.0312 70.8516 11.7734C70.7188 11.5078 70.5078 11.3008 70.2188 11.1523C69.9375 10.9961 69.5703 10.918 69.1172 10.918C68.7422 10.918 68.418 10.9844 68.1445 11.1172C67.8711 11.2422 67.6602 11.4141 67.5117 11.6328C67.3711 11.8438 67.3008 12.0781 67.3008 12.3359C67.3008 12.5312 67.3398 12.707 67.418 12.8633C67.5039 13.0117 67.6406 13.1484 67.8281 13.2734C68.0156 13.3984 68.2578 13.5156 68.5547 13.625C68.8594 13.7266 69.2344 13.8203 69.6797 13.9062C70.5938 14.0938 71.4102 14.3398 72.1289 14.6445C72.8477 14.9414 73.418 15.3477 73.8398 15.8633C74.2617 16.3711 74.4727 17.0391 74.4727 17.8672C74.4727 18.4297 74.3477 18.9453 74.0977 19.4141C73.8477 19.8828 73.4883 20.293 73.0195 20.6445C72.5508 20.9883 71.9883 21.2578 71.332 21.4531C70.6836 21.6406 69.9531 21.7344 69.1406 21.7344C67.9609 21.7344 66.9609 21.5234 66.1406 21.1016C65.3281 20.6797 64.7109 20.1445 64.2891 19.4961C63.875 18.8398 63.668 18.168 63.668 17.4805H66.8672C66.8828 17.9414 67 18.3125 67.2188 18.5938C67.4453 18.875 67.7305 19.0781 68.0742 19.2031C68.4258 19.3281 68.8047 19.3906 69.2109 19.3906C69.6484 19.3906 70.0117 19.332 70.3008 19.2148C70.5898 19.0898 70.8086 18.9258 70.957 18.7227C71.1133 18.5117 71.1914 18.2695 71.1914 17.9961ZM82.875 8.82031V11.2109H75.4922V8.82031H82.875ZM77.3203 5.69141H80.6953V17.6797C80.6953 18.0469 80.7422 18.3281 80.8359 18.5234C80.9375 18.7188 81.0859 18.8555 81.2812 18.9336C81.4766 19.0039 81.7227 19.0391 82.0195 19.0391C82.2305 19.0391 82.418 19.0312 82.582 19.0156C82.7539 18.9922 82.8984 18.9688 83.0156 18.9453L83.0273 21.4297C82.7383 21.5234 82.4258 21.5977 82.0898 21.6523C81.7539 21.707 81.3828 21.7344 80.9766 21.7344C80.2344 21.7344 79.5859 21.6133 79.0312 21.3711C78.4844 21.1211 78.0625 20.7227 77.7656 20.1758C77.4688 19.6289 77.3203 18.9102 77.3203 18.0195V5.69141Z" fill="#455A64"/>
<path d="M31.4434 35.5H30.3594V28.4922C30.3594 28.0352 30.4414 27.6504 30.6055 27.3379C30.7734 27.0215 31.0137 26.7832 31.3262 26.623C31.6387 26.459 32.0098 26.377 32.4395 26.377C32.5645 26.377 32.6895 26.3848 32.8145 26.4004C32.9434 26.416 33.0684 26.4395 33.1895 26.4707L33.1309 27.3555C33.0488 27.3359 32.9551 27.3223 32.8496 27.3145C32.748 27.3066 32.6465 27.3027 32.5449 27.3027C32.3145 27.3027 32.1152 27.3496 31.9473 27.4434C31.7832 27.5332 31.6582 27.666 31.5723 27.8418C31.4863 28.0176 31.4434 28.2344 31.4434 28.4922V35.5ZM32.791 29.1602V29.9922H29.3574V29.1602H32.791ZM33.7109 32.4004V32.2656C33.7109 31.8086 33.7773 31.3848 33.9102 30.9941C34.043 30.5996 34.2344 30.2578 34.4844 29.9688C34.7344 29.6758 35.0371 29.4492 35.3926 29.2891C35.748 29.125 36.1465 29.043 36.5879 29.043C37.0332 29.043 37.4336 29.125 37.7891 29.2891C38.1484 29.4492 38.4531 29.6758 38.7031 29.9688C38.957 30.2578 39.1504 30.5996 39.2832 30.9941C39.416 31.3848 39.4824 31.8086 39.4824 32.2656V32.4004C39.4824 32.8574 39.416 33.2812 39.2832 33.6719C39.1504 34.0625 38.957 34.4043 38.7031 34.6973C38.4531 34.9863 38.1504 35.2129 37.7949 35.377C37.4434 35.5371 37.0449 35.6172 36.5996 35.6172C36.1543 35.6172 35.7539 35.5371 35.3984 35.377C35.043 35.2129 34.7383 34.9863 34.4844 34.6973C34.2344 34.4043 34.043 34.0625 33.9102 33.6719C33.7773 33.2812 33.7109 32.8574 33.7109 32.4004ZM34.7949 32.2656V32.4004C34.7949 32.7168 34.832 33.0156 34.9062 33.2969C34.9805 33.5742 35.0918 33.8203 35.2402 34.0352C35.3926 34.25 35.582 34.4199 35.8086 34.5449C36.0352 34.666 36.2988 34.7266 36.5996 34.7266C36.8965 34.7266 37.1562 34.666 37.3789 34.5449C37.6055 34.4199 37.793 34.25 37.9414 34.0352C38.0898 33.8203 38.2012 33.5742 38.2754 33.2969C38.3535 33.0156 38.3926 32.7168 38.3926 32.4004V32.2656C38.3926 31.9531 38.3535 31.6582 38.2754 31.3809C38.2012 31.0996 38.0879 30.8516 37.9355 30.6367C37.7871 30.418 37.5996 30.2461 37.373 30.1211C37.1504 29.9961 36.8887 29.9336 36.5879 29.9336C36.291 29.9336 36.0293 29.9961 35.8027 30.1211C35.5801 30.2461 35.3926 30.418 35.2402 30.6367C35.0918 30.8516 34.9805 31.0996 34.9062 31.3809C34.832 31.6582 34.7949 31.9531 34.7949 32.2656ZM41.9258 30.1562V35.5H40.8418V29.1602H41.8965L41.9258 30.1562ZM43.9062 29.125L43.9004 30.1328C43.8105 30.1133 43.7246 30.1016 43.6426 30.0977C43.5645 30.0898 43.4746 30.0859 43.373 30.0859C43.123 30.0859 42.9023 30.125 42.7109 30.2031C42.5195 30.2812 42.3574 30.3906 42.2246 30.5312C42.0918 30.6719 41.9863 30.8398 41.9082 31.0352C41.834 31.2266 41.7852 31.4375 41.7617 31.668L41.457 31.8438C41.457 31.4609 41.4941 31.1016 41.5684 30.7656C41.6465 30.4297 41.7656 30.1328 41.9258 29.875C42.0859 29.6133 42.2891 29.4102 42.5352 29.2656C42.7852 29.1172 43.082 29.043 43.4258 29.043C43.5039 29.043 43.5938 29.0527 43.6953 29.0723C43.7969 29.0879 43.8672 29.1055 43.9062 29.125ZM48.9688 26.5V35.5H47.8848V26.5H48.9688ZM48.7109 32.0898L48.2598 32.0723C48.2637 31.6387 48.3281 31.2383 48.4531 30.8711C48.5781 30.5 48.7539 30.1777 48.9805 29.9043C49.207 29.6309 49.4766 29.4199 49.7891 29.2715C50.1055 29.1191 50.4551 29.043 50.8379 29.043C51.1504 29.043 51.4316 29.0859 51.6816 29.1719C51.9316 29.2539 52.1445 29.3867 52.3203 29.5703C52.5 29.7539 52.6367 29.9922 52.7305 30.2852C52.8242 30.5742 52.8711 30.9277 52.8711 31.3457V35.5H51.7812V31.334C51.7812 31.002 51.7324 30.7363 51.6348 30.5371C51.5371 30.334 51.3945 30.1875 51.207 30.0977C51.0195 30.0039 50.7891 29.957 50.5156 29.957C50.2461 29.957 50 30.0137 49.7773 30.127C49.5586 30.2402 49.3691 30.3965 49.209 30.5957C49.0527 30.7949 48.9297 31.0234 48.8398 31.2812C48.7539 31.5352 48.7109 31.8047 48.7109 32.0898ZM54.207 32.4004V32.2656C54.207 31.8086 54.2734 31.3848 54.4062 30.9941C54.5391 30.5996 54.7305 30.2578 54.9805 29.9688C55.2305 29.6758 55.5332 29.4492 55.8887 29.2891C56.2441 29.125 56.6426 29.043 57.084 29.043C57.5293 29.043 57.9297 29.125 58.2852 29.2891C58.6445 29.4492 58.9492 29.6758 59.1992 29.9688C59.4531 30.2578 59.6465 30.5996 59.7793 30.9941C59.9121 31.3848 59.9785 31.8086 59.9785 32.2656V32.4004C59.9785 32.8574 59.9121 33.2812 59.7793 33.6719C59.6465 34.0625 59.4531 34.4043 59.1992 34.6973C58.9492 34.9863 58.6465 35.2129 58.291 35.377C57.9395 35.5371 57.541 35.6172 57.0957 35.6172C56.6504 35.6172 56.25 35.5371 55.8945 35.377C55.5391 35.2129 55.2344 34.9863 54.9805 34.6973C54.7305 34.4043 54.5391 34.0625 54.4062 33.6719C54.2734 33.2812 54.207 32.8574 54.207 32.4004ZM55.291 32.2656V32.4004C55.291 32.7168 55.3281 33.0156 55.4023 33.2969C55.4766 33.5742 55.5879 33.8203 55.7363 34.0352C55.8887 34.25 56.0781 34.4199 56.3047 34.5449C56.5312 34.666 56.7949 34.7266 57.0957 34.7266C57.3926 34.7266 57.6523 34.666 57.875 34.5449C58.1016 34.4199 58.2891 34.25 58.4375 34.0352C58.5859 33.8203 58.6973 33.5742 58.7715 33.2969C58.8496 33.0156 58.8887 32.7168 58.8887 32.4004V32.2656C58.8887 31.9531 58.8496 31.6582 58.7715 31.3809C58.6973 31.0996 58.584 30.8516 58.4316 30.6367C58.2832 30.418 58.0957 30.2461 57.8691 30.1211C57.6465 29.9961 57.3848 29.9336 57.084 29.9336C56.7871 29.9336 56.5254 29.9961 56.2988 30.1211C56.0762 30.2461 55.8887 30.418 55.7363 30.6367C55.5879 30.8516 55.4766 31.0996 55.4023 31.3809C55.3281 31.6582 55.291 31.9531 55.291 32.2656ZM62.416 30.4199V35.5H61.3262V29.1602H62.3574L62.416 30.4199ZM62.1934 32.0898L61.6895 32.0723C61.6934 31.6387 61.75 31.2383 61.8594 30.8711C61.9688 30.5 62.1309 30.1777 62.3457 29.9043C62.5605 29.6309 62.8281 29.4199 63.1484 29.2715C63.4688 29.1191 63.8398 29.043 64.2617 29.043C64.5586 29.043 64.832 29.0859 65.082 29.1719C65.332 29.2539 65.5488 29.3848 65.7324 29.5645C65.916 29.7441 66.0586 29.9746 66.1602 30.2559C66.2617 30.5371 66.3125 30.877 66.3125 31.2754V35.5H65.2285V31.3281C65.2285 30.9961 65.1719 30.7305 65.0586 30.5312C64.9492 30.332 64.793 30.1875 64.5898 30.0977C64.3867 30.0039 64.1484 29.957 63.875 29.957C63.5547 29.957 63.2871 30.0137 63.0723 30.127C62.8574 30.2402 62.6855 30.3965 62.5566 30.5957C62.4277 30.7949 62.334 31.0234 62.2754 31.2812C62.2207 31.5352 62.1934 31.8047 62.1934 32.0898ZM66.3008 31.4922L65.5742 31.7148C65.5781 31.3672 65.6348 31.0332 65.7441 30.7129C65.8574 30.3926 66.0195 30.1074 66.2305 29.8574C66.4453 29.6074 66.709 29.4102 67.0215 29.2656C67.334 29.1172 67.6914 29.043 68.0938 29.043C68.4336 29.043 68.7344 29.0879 68.9961 29.1777C69.2617 29.2676 69.4844 29.4062 69.6641 29.5938C69.8477 29.7773 69.9863 30.0137 70.0801 30.3027C70.1738 30.5918 70.2207 30.9355 70.2207 31.334V35.5H69.1309V31.3223C69.1309 30.9668 69.0742 30.6914 68.9609 30.4961C68.8516 30.2969 68.6953 30.1582 68.4922 30.0801C68.293 29.998 68.0547 29.957 67.7773 29.957C67.5391 29.957 67.3281 29.998 67.1445 30.0801C66.9609 30.1621 66.8066 30.2754 66.6816 30.4199C66.5566 30.5605 66.4609 30.7227 66.3945 30.9062C66.332 31.0898 66.3008 31.2852 66.3008 31.4922ZM74.4922 35.6172C74.0508 35.6172 73.6504 35.543 73.291 35.3945C72.9355 35.2422 72.6289 35.0293 72.3711 34.7559C72.1172 34.4824 71.9219 34.1582 71.7852 33.7832C71.6484 33.4082 71.5801 32.998 71.5801 32.5527V32.3066C71.5801 31.791 71.6562 31.332 71.8086 30.9297C71.9609 30.5234 72.168 30.1797 72.4297 29.8984C72.6914 29.6172 72.9883 29.4043 73.3203 29.2598C73.6523 29.1152 73.9961 29.043 74.3516 29.043C74.8047 29.043 75.1953 29.1211 75.5234 29.2773C75.8555 29.4336 76.127 29.6523 76.3379 29.9336C76.5488 30.2109 76.7051 30.5391 76.8066 30.918C76.9082 31.293 76.959 31.7031 76.959 32.1484V32.6348H72.2246V31.75H75.875V31.668C75.8594 31.3867 75.8008 31.1133 75.6992 30.8477C75.6016 30.582 75.4453 30.3633 75.2305 30.1914C75.0156 30.0195 74.7227 29.9336 74.3516 29.9336C74.1055 29.9336 73.8789 29.9863 73.6719 30.0918C73.4648 30.1934 73.2871 30.3457 73.1387 30.5488C72.9902 30.752 72.875 31 72.793 31.293C72.7109 31.5859 72.6699 31.9238 72.6699 32.3066V32.5527C72.6699 32.8535 72.7109 33.1367 72.793 33.4023C72.8789 33.6641 73.002 33.8945 73.1621 34.0938C73.3262 34.293 73.5234 34.4492 73.7539 34.5625C73.9883 34.6758 74.2539 34.7324 74.5508 34.7324C74.9336 34.7324 75.2578 34.6543 75.5234 34.498C75.7891 34.3418 76.0215 34.1328 76.2207 33.8711L76.877 34.3926C76.7402 34.5996 76.5664 34.7969 76.3555 34.9844C76.1445 35.1719 75.8848 35.3242 75.5762 35.4414C75.2715 35.5586 74.9102 35.6172 74.4922 35.6172ZM81.916 33.8184C81.916 33.6621 81.8809 33.5176 81.8105 33.3848C81.7441 33.248 81.6055 33.125 81.3945 33.0156C81.1875 32.9023 80.875 32.8047 80.457 32.7227C80.1055 32.6484 79.7871 32.5605 79.502 32.459C79.2207 32.3574 78.9805 32.2344 78.7812 32.0898C78.5859 31.9453 78.4355 31.7754 78.3301 31.5801C78.2246 31.3848 78.1719 31.1562 78.1719 30.8945C78.1719 30.6445 78.2266 30.4082 78.3359 30.1855C78.4492 29.9629 78.6074 29.7656 78.8105 29.5938C79.0176 29.4219 79.2656 29.2871 79.5547 29.1895C79.8438 29.0918 80.166 29.043 80.5215 29.043C81.0293 29.043 81.4629 29.1328 81.8223 29.3125C82.1816 29.4922 82.457 29.7324 82.6484 30.0332C82.8398 30.3301 82.9355 30.6602 82.9355 31.0234H81.8516C81.8516 30.8477 81.7988 30.6777 81.6934 30.5137C81.5918 30.3457 81.4414 30.207 81.2422 30.0977C81.0469 29.9883 80.8066 29.9336 80.5215 29.9336C80.2207 29.9336 79.9766 29.9805 79.7891 30.0742C79.6055 30.1641 79.4707 30.2793 79.3848 30.4199C79.3027 30.5605 79.2617 30.709 79.2617 30.8652C79.2617 30.9824 79.2812 31.0879 79.3203 31.1816C79.3633 31.2715 79.4375 31.3555 79.543 31.4336C79.6484 31.5078 79.7969 31.5781 79.9883 31.6445C80.1797 31.7109 80.4238 31.7773 80.7207 31.8438C81.2402 31.9609 81.668 32.1016 82.0039 32.2656C82.3398 32.4297 82.5898 32.6309 82.7539 32.8691C82.918 33.1074 83 33.3965 83 33.7363C83 34.0137 82.9414 34.2676 82.8242 34.498C82.7109 34.7285 82.5449 34.9277 82.3262 35.0957C82.1113 35.2598 81.8535 35.3887 81.5527 35.4824C81.2559 35.5723 80.9219 35.6172 80.5508 35.6172C79.9922 35.6172 79.5195 35.5176 79.1328 35.3184C78.7461 35.1191 78.4531 34.8613 78.2539 34.5449C78.0547 34.2285 77.9551 33.8945 77.9551 33.543H79.0449C79.0605 33.8398 79.1465 34.0762 79.3027 34.252C79.459 34.4238 79.6504 34.5469 79.877 34.6211C80.1035 34.6914 80.3281 34.7266 80.5508 34.7266C80.8477 34.7266 81.0957 34.6875 81.2949 34.6094C81.498 34.5312 81.6523 34.4238 81.7578 34.2871C81.8633 34.1504 81.916 33.9941 81.916 33.8184Z" fill="#455A64"/>
</svg>
