<svg width="48" height="48" viewBox="0 0 48 48" fill="none" xmlns="http://www.w3.org/2000/svg">
<rect width="48" height="48" fill="#DDE1E6"/>
<path d="M24 34C18.477 34 14 29.523 14 24C14 18.477 18.477 14 24 14C29.523 14 34 18.477 34 24C34 29.523 29.523 34 24 34ZM24 32C26.1217 32 28.1566 31.1571 29.6569 29.6569C31.1571 28.1566 32 26.1217 32 24C32 21.8783 31.1571 19.8434 29.6569 18.3431C28.1566 16.8429 26.1217 16 24 16C21.8783 16 19.8434 16.8429 18.3431 18.3431C16.8429 19.8434 16 21.8783 16 24C16 26.1217 16.8429 28.1566 18.3431 29.6569C19.8434 31.1571 21.8783 32 24 32ZM20.08 27.394C20.0283 27.2732 20.0008 27.1434 19.9993 27.0119C19.9977 26.8805 20.022 26.7501 20.0709 26.6281C20.1197 26.506 20.1921 26.3948 20.2839 26.3008C20.3757 26.2068 20.4852 26.1317 20.606 26.08C20.7268 26.0283 20.8566 26.0008 20.9881 25.9993C21.1195 25.9977 21.2499 26.022 21.3719 26.0709C21.494 26.1197 21.6052 26.1921 21.6992 26.2839C21.7932 26.3757 21.8683 26.4852 21.92 26.606C22.0948 27.0127 22.385 27.3592 22.7547 27.6027C23.1244 27.8462 23.5573 27.976 24 27.976C24.4427 27.976 24.8756 27.8462 25.2453 27.6027C25.615 27.3592 25.9052 27.0127 26.08 26.606C26.1317 26.4852 26.2068 26.3757 26.3008 26.2839C26.3948 26.1921 26.506 26.1197 26.6281 26.0709C26.7501 26.022 26.8805 25.9977 27.0119 25.9993C27.1434 26.0008 27.2732 26.0283 27.394 26.08C27.5148 26.1317 27.6243 26.2068 27.7161 26.3008C27.8079 26.3948 27.8803 26.506 27.9291 26.6281C27.978 26.7501 28.0023 26.8805 28.0007 27.0119C27.9992 27.1434 27.9717 27.2732 27.92 27.394C27.5915 28.1615 27.0449 28.8156 26.3481 29.2753C25.6513 29.7351 24.8348 29.9801 24 29.9801C23.1652 29.9801 22.3487 29.7351 21.6519 29.2753C20.9551 28.8156 20.4085 28.1615 20.08 27.394ZM21 20C21.2652 20 21.5196 20.1054 21.7071 20.2929C21.8946 20.4804 22 20.7348 22 21V23C22 23.2652 21.8946 23.5196 21.7071 23.7071C21.5196 23.8946 21.2652 24 21 24C20.7348 24 20.4804 23.8946 20.2929 23.7071C20.1054 23.5196 20 23.2652 20 23V21C20 20.7348 20.1054 20.4804 20.2929 20.2929C20.4804 20.1054 20.7348 20 21 20ZM27 20C27.2652 20 27.5196 20.1054 27.7071 20.2929C27.8946 20.4804 28 20.7348 28 21V23C28 23.2652 27.8946 23.5196 27.7071 23.7071C27.5196 23.8946 27.2652 24 27 24C26.7348 24 26.4804 23.8946 26.2929 23.7071C26.1054 23.5196 26 23.2652 26 23V21C26 20.7348 26.1054 20.4804 26.2929 20.2929C26.4804 20.1054 26.7348 20 27 20Z" fill="#697077"/>
</svg>
