<svg width="48" height="48" viewBox="0 0 48 48" fill="none" xmlns="http://www.w3.org/2000/svg">
<rect width="48" height="48" fill="#DDE1E6"/>
<path d="M17.534 24.57C17.6569 24.5175 17.7892 24.4903 17.9228 24.4898C18.0565 24.4893 18.1889 24.5156 18.3122 24.5672C18.4355 24.6188 18.5473 24.6945 18.6408 24.79C18.7344 24.8855 18.8078 24.9988 18.8568 25.1231C18.9058 25.2475 18.9294 25.3804 18.9262 25.514C18.9229 25.6477 18.8929 25.7793 18.8379 25.9011C18.7829 26.023 18.7041 26.1325 18.606 26.2234C18.508 26.3142 18.3927 26.3845 18.267 26.43C17.5985 26.6934 17.0248 27.1519 16.6205 27.7458C16.2162 28.3397 16 29.0415 16 29.76V31.5C16 31.7652 16.1054 32.0196 16.2929 32.2071C16.4804 32.3946 16.7348 32.5 17 32.5H25C25.2652 32.5 25.5196 32.3946 25.7071 32.2071C25.8946 32.0196 26 31.7652 26 31.5V29.853C26.0001 29.1115 25.7749 28.3874 25.3541 27.7768C24.9334 27.1662 24.337 26.6979 23.644 26.434C23.5175 26.3901 23.4012 26.3213 23.3018 26.2316C23.2024 26.1419 23.1221 26.0332 23.0655 25.9119C23.009 25.7905 22.9773 25.6591 22.9725 25.5253C22.9677 25.3916 22.9897 25.2582 23.0374 25.1331C23.0851 25.008 23.1574 24.8938 23.25 24.7972C23.3427 24.7006 23.4538 24.6235 23.5767 24.5706C23.6997 24.5177 23.832 24.4901 23.9659 24.4893C24.0998 24.4885 24.2324 24.5146 24.356 24.566C25.4276 24.9742 26.3499 25.6983 27.0006 26.6425C27.6514 27.5867 27.9999 28.7063 28 29.853V31.5C28 32.2956 27.6839 33.0587 27.1213 33.6213C26.5587 34.1839 25.7956 34.5 25 34.5H17C16.2044 34.5 15.4413 34.1839 14.8787 33.6213C14.3161 33.0587 14 32.2956 14 31.5V29.76C14.0001 28.6402 14.3373 27.5463 14.9676 26.6206C15.5978 25.695 16.4921 24.9805 17.534 24.57ZM21 14.5C22.0609 14.5 23.0783 14.9214 23.8284 15.6716C24.5786 16.4217 25 17.4391 25 18.5V20.5C25 21.5609 24.5786 22.5783 23.8284 23.3284C23.0783 24.0786 22.0609 24.5 21 24.5C19.9391 24.5 18.9217 24.0786 18.1716 23.3284C17.4214 22.5783 17 21.5609 17 20.5V18.5C17 17.4391 17.4214 16.4217 18.1716 15.6716C18.9217 14.9214 19.9391 14.5 21 14.5ZM21 16.5C20.4696 16.5 19.9609 16.7107 19.5858 17.0858C19.2107 17.4609 19 17.9696 19 18.5V20.5C19 21.0304 19.2107 21.5391 19.5858 21.9142C19.9609 22.2893 20.4696 22.5 21 22.5C21.5304 22.5 22.0391 22.2893 22.4142 21.9142C22.7893 21.5391 23 21.0304 23 20.5V18.5C23 17.9696 22.7893 17.4609 22.4142 17.0858C22.0391 16.7107 21.5304 16.5 21 16.5ZM30 33.5C29.7348 33.5 29.4804 33.3946 29.2929 33.2071C29.1054 33.0196 29 32.7652 29 32.5C29 32.2348 29.1054 31.9804 29.2929 31.7929C29.4804 31.6054 29.7348 31.5 30 31.5H31C31.2652 31.5 31.5196 31.3946 31.7071 31.2071C31.8946 31.0196 32 30.7652 32 30.5V28.662C32 27.9512 31.7763 27.2583 31.3606 26.6817C30.9449 26.105 30.3584 25.6738 29.684 25.449C29.5594 25.4075 29.4441 25.3419 29.3449 25.2558C29.2456 25.1698 29.1643 25.0651 29.1055 24.9476C29.0467 24.8301 29.0117 24.7022 29.0023 24.5712C28.993 24.4402 29.0095 24.3086 29.051 24.184C29.0925 24.0594 29.1581 23.9441 29.2442 23.8449C29.3302 23.7456 29.4349 23.6643 29.5524 23.6055C29.6699 23.5467 29.7978 23.5117 29.9288 23.5023C30.0598 23.493 30.1914 23.5095 30.316 23.551C31.3888 23.9085 32.3219 24.5945 32.9831 25.5118C33.6443 26.4291 34.0001 27.5312 34 28.662V30.5C34 31.2956 33.6839 32.0587 33.1213 32.6213C32.5587 33.1839 31.7956 33.5 31 33.5H30ZM27 15.5C26.7348 15.5 26.4804 15.3946 26.2929 15.2071C26.1054 15.0196 26 14.7652 26 14.5C26 14.2348 26.1054 13.9804 26.2929 13.7929C26.4804 13.6054 26.7348 13.5 27 13.5C28.0609 13.5 29.0783 13.9214 29.8284 14.6716C30.5786 15.4217 31 16.4391 31 17.5V19.5C31 20.5609 30.5786 21.5783 29.8284 22.3284C29.0783 23.0786 28.0609 23.5 27 23.5C26.7348 23.5 26.4804 23.3946 26.2929 23.2071C26.1054 23.0196 26 22.7652 26 22.5C26 22.2348 26.1054 21.9804 26.2929 21.7929C26.4804 21.6054 26.7348 21.5 27 21.5C27.5304 21.5 28.0391 21.2893 28.4142 20.9142C28.7893 20.5391 29 20.0304 29 19.5V17.5C29 16.9696 28.7893 16.4609 28.4142 16.0858C28.0391 15.7107 27.5304 15.5 27 15.5Z" fill="#697077"/>
</svg>
