<svg width="48" height="48" viewBox="0 0 48 48" fill="none" xmlns="http://www.w3.org/2000/svg">
<rect width="48" height="48" fill="#DDE1E6"/>
<path d="M18.258 20.8841L23.97 30.9771L29.588 21.1471C28.258 21.0421 26.876 20.6941 25.346 20.1551C24.951 20.0151 24.748 19.9841 24.566 20.0071C24.412 20.0271 22.843 20.5761 21.923 20.8091C20.762 21.1031 19.539 21.1261 18.258 20.8841ZM16.848 18.3941C18.55 19.0641 20.072 19.2141 21.432 18.8701C22.17 18.6831 23.91 18.0741 24.315 18.0231C24.844 17.9561 25.345 18.0331 26.011 18.2681C27.785 18.8941 29.307 19.2241 30.714 19.1771L31.601 17.6251C29.2 16.5482 26.5974 15.9943 23.966 16.0001C21.3589 15.9946 18.7799 16.5384 16.397 17.5961L16.848 18.3931V18.3941ZM14.542 16.2681C17.457 14.7699 20.6885 13.9922 23.966 14.0001C27.328 14.0001 30.572 14.8001 33.462 16.3061C33.5813 16.3683 33.6869 16.4539 33.7723 16.5579C33.8578 16.6619 33.9214 16.782 33.9593 16.9112C33.9972 17.0403 34.0087 17.1758 33.993 17.3094C33.9773 17.4431 33.9348 17.5722 33.868 17.6891L24.834 33.4961C24.7463 33.6493 24.6196 33.7766 24.4667 33.8649C24.3139 33.9533 24.1404 33.9997 23.9638 33.9993C23.7873 33.9988 23.614 33.9517 23.4615 33.8626C23.3091 33.7735 23.183 33.6457 23.096 33.4921L14.13 17.6501C14.0639 17.533 14.0221 17.4038 14.0071 17.2702C13.9921 17.1366 14.0042 17.0013 14.0426 16.8725C14.0811 16.7437 14.1451 16.6239 14.2309 16.5204C14.3167 16.4169 14.4225 16.3318 14.542 16.2701V16.2681ZM22 24.0001C21.7348 24.0001 21.4804 23.8947 21.2929 23.7072C21.1053 23.5196 21 23.2653 21 23.0001C21 22.7348 21.1053 22.4805 21.2929 22.293C21.4804 22.1054 21.7348 22.0001 22 22.0001C22.2652 22.0001 22.5195 22.1054 22.7071 22.293C22.8946 22.4805 23 22.7348 23 23.0001C23 23.2653 22.8946 23.5196 22.7071 23.7072C22.5195 23.8947 22.2652 24.0001 22 24.0001ZM25 27.0001C24.7348 27.0001 24.4804 26.8947 24.2929 26.7072C24.1053 26.5196 24 26.2653 24 26.0001C24 25.7348 24.1053 25.4805 24.2929 25.293C24.4804 25.1054 24.7348 25.0001 25 25.0001C25.2652 25.0001 25.5195 25.1054 25.7071 25.293C25.8946 25.4805 26 25.7348 26 26.0001C26 26.2653 25.8946 26.5196 25.7071 26.7072C25.5195 26.8947 25.2652 27.0001 25 27.0001Z" fill="#697077"/>
</svg>
