<svg width="48" height="48" viewBox="0 0 48 48" fill="none" xmlns="http://www.w3.org/2000/svg">
<rect width="48" height="48" fill="#DDE1E6"/>
<path d="M21 29H17C16.4696 29 15.9609 28.7893 15.5858 28.4142C15.2107 28.0391 15 27.5304 15 27V16C15 15.4696 15.2107 14.9609 15.5858 14.5858C15.9609 14.2107 16.4696 14 17 14H25C25.5304 14 26.0391 14.2107 26.4142 14.5858C26.7893 14.9609 27 15.4696 27 16V19H30L33 22V32C33 32.5304 32.7893 33.0391 32.4142 33.4142C32.0391 33.7893 31.5304 34 31 34H23C22.4696 34 21.9609 33.7893 21.5858 33.4142C21.2107 33.0391 21 32.5304 21 32V29ZM21 27V21C21 20.4696 21.2107 19.9609 21.5858 19.5858C21.9609 19.2107 22.4696 19 23 19H25V16H17V27H21ZM29.172 21H23V32H31V22.828L29.172 21Z" fill="#697077"/>
</svg>
