<svg width="16" height="16" viewBox="0 0 16 16" fill="none" xmlns="http://www.w3.org/2000/svg">
<path d="M2.55994 8.00006C2.55994 4.99206 4.99194 2.56006 7.99994 2.56006C11.0079 2.56006 13.4399 4.99206 13.4399 8.00006C13.4399 11.0081 11.0079 13.4401 7.99994 13.4401C4.99194 13.4401 2.55994 11.0081 2.55994 8.00006ZM12.7999 8.00006C12.7999 5.34406 10.6559 3.20006 7.99994 3.20006C5.34394 3.20006 3.19994 5.34406 3.19994 8.00006C3.19994 10.6561 5.34394 12.8001 7.99994 12.8001C10.6559 12.8001 12.7999 10.6561 12.7999 8.00006Z" fill="#455A64"/>
<path d="M7.45606 10.656L10.1121 8L7.45606 5.344L7.90406 4.896L11.0081 8L7.90406 11.104L7.45606 10.656Z" fill="#455A64"/>
<path d="M10.5601 7.67993V8.31993L5.12006 8.31993V7.67993L10.5601 7.67993Z" fill="#455A64"/>
</svg>
