<svg width="124" height="40" viewBox="0 0 124 40" fill="none" xmlns="http://www.w3.org/2000/svg">
<path fill-rule="evenodd" clip-rule="evenodd" d="M0 0.5V24.5H24V0.5H0ZM3.41421 2.5L12 11.0858L20.5858 2.5H3.41421ZM22 3.91421L13.4142 12.5L22 21.0858V3.91421ZM20.5858 22.5L12 13.9142L3.41421 22.5H20.5858ZM2 21.0858L10.5858 12.5L2 3.91421V21.0858Z" fill="#DDE1E6"/>
<path d="M31.1289 4.4375H34.1055L38.4883 16.9648L42.8711 4.4375H45.8477L39.6836 21.5H37.293L31.1289 4.4375ZM29.5234 4.4375H32.4883L33.0273 16.6484V21.5H29.5234V4.4375ZM44.4883 4.4375H47.4648V21.5H43.9492V16.6484L44.4883 4.4375ZM52.5625 4.4375L56.125 12.2188L59.6875 4.4375H63.5195L57.9062 15.2891V21.5H54.3438V15.2891L48.7188 4.4375H52.5625ZM78.9648 4.4375V21.5H75.4492L68.5938 10.0625V21.5H65.0781V4.4375H68.5938L75.4609 15.8867V4.4375H78.9648ZM93.4727 18.7578V21.5H84.3906V18.7578H93.4727ZM85.5391 4.4375V21.5H82.0234V4.4375H85.5391ZM92.2891 11.3867V14.0586H84.3906V11.3867H92.2891ZM93.4609 4.4375V7.19141H84.3906V4.4375H93.4609ZM104.406 17.0352C104.406 16.7305 104.359 16.457 104.266 16.2148C104.18 15.9648 104.016 15.7383 103.773 15.5352C103.531 15.3242 103.191 15.1172 102.754 14.9141C102.316 14.7109 101.75 14.5 101.055 14.2812C100.281 14.0312 99.5469 13.75 98.8516 13.4375C98.1641 13.125 97.5547 12.7617 97.0234 12.3477C96.5 11.9258 96.0859 11.4375 95.7812 10.8828C95.4844 10.3281 95.3359 9.68359 95.3359 8.94922C95.3359 8.23828 95.4922 7.59375 95.8047 7.01562C96.1172 6.42969 96.5547 5.92969 97.1172 5.51562C97.6797 5.09375 98.3438 4.76953 99.1094 4.54297C99.8828 4.31641 100.73 4.20312 101.652 4.20312C102.91 4.20312 104.008 4.42969 104.945 4.88281C105.883 5.33594 106.609 5.95703 107.125 6.74609C107.648 7.53516 107.91 8.4375 107.91 9.45312H104.418C104.418 8.95312 104.312 8.51562 104.102 8.14062C103.898 7.75781 103.586 7.45703 103.164 7.23828C102.75 7.01953 102.227 6.91016 101.594 6.91016C100.984 6.91016 100.477 7.00391 100.07 7.19141C99.6641 7.37109 99.3594 7.61719 99.1562 7.92969C98.9531 8.23438 98.8516 8.57812 98.8516 8.96094C98.8516 9.25 98.9219 9.51172 99.0625 9.74609C99.2109 9.98047 99.4297 10.1992 99.7188 10.4023C100.008 10.6055 100.363 10.7969 100.785 10.9766C101.207 11.1562 101.695 11.332 102.25 11.5039C103.18 11.7852 103.996 12.1016 104.699 12.4531C105.41 12.8047 106.004 13.1992 106.48 13.6367C106.957 14.0742 107.316 14.5703 107.559 15.125C107.801 15.6797 107.922 16.3086 107.922 17.0117C107.922 17.7539 107.777 18.418 107.488 19.0039C107.199 19.5898 106.781 20.0859 106.234 20.4922C105.688 20.8984 105.035 21.207 104.277 21.418C103.52 21.6289 102.672 21.7344 101.734 21.7344C100.891 21.7344 100.059 21.625 99.2383 21.4062C98.418 21.1797 97.6719 20.8398 97 20.3867C96.3359 19.9336 95.8047 19.3555 95.4062 18.6523C95.0078 17.9492 94.8086 17.1172 94.8086 16.1562H98.3359C98.3359 16.6875 98.418 17.1367 98.582 17.5039C98.7461 17.8711 98.9766 18.168 99.2734 18.3945C99.5781 18.6211 99.9375 18.7852 100.352 18.8867C100.773 18.9883 101.234 19.0391 101.734 19.0391C102.344 19.0391 102.844 18.9531 103.234 18.7812C103.633 18.6094 103.926 18.3711 104.113 18.0664C104.309 17.7617 104.406 17.418 104.406 17.0352ZM117.941 4.4375V21.5H114.438V4.4375H117.941ZM123.191 4.4375V7.19141H109.27V4.4375H123.191Z" fill="#C1C7CD"/>
<path d="M69.4434 35.5H68.3594V28.4922C68.3594 28.0352 68.4414 27.6504 68.6055 27.3379C68.7734 27.0215 69.0137 26.7832 69.3262 26.623C69.6387 26.459 70.0098 26.377 70.4395 26.377C70.5645 26.377 70.6895 26.3848 70.8145 26.4004C70.9434 26.416 71.0684 26.4395 71.1895 26.4707L71.1309 27.3555C71.0488 27.3359 70.9551 27.3223 70.8496 27.3145C70.748 27.3066 70.6465 27.3027 70.5449 27.3027C70.3145 27.3027 70.1152 27.3496 69.9473 27.4434C69.7832 27.5332 69.6582 27.666 69.5723 27.8418C69.4863 28.0176 69.4434 28.2344 69.4434 28.4922V35.5ZM70.791 29.1602V29.9922H67.3574V29.1602H70.791ZM71.7109 32.4004V32.2656C71.7109 31.8086 71.7773 31.3848 71.9102 30.9941C72.043 30.5996 72.2344 30.2578 72.4844 29.9688C72.7344 29.6758 73.0371 29.4492 73.3926 29.2891C73.748 29.125 74.1465 29.043 74.5879 29.043C75.0332 29.043 75.4336 29.125 75.7891 29.2891C76.1484 29.4492 76.4531 29.6758 76.7031 29.9688C76.957 30.2578 77.1504 30.5996 77.2832 30.9941C77.416 31.3848 77.4824 31.8086 77.4824 32.2656V32.4004C77.4824 32.8574 77.416 33.2812 77.2832 33.6719C77.1504 34.0625 76.957 34.4043 76.7031 34.6973C76.4531 34.9863 76.1504 35.2129 75.7949 35.377C75.4434 35.5371 75.0449 35.6172 74.5996 35.6172C74.1543 35.6172 73.7539 35.5371 73.3984 35.377C73.043 35.2129 72.7383 34.9863 72.4844 34.6973C72.2344 34.4043 72.043 34.0625 71.9102 33.6719C71.7773 33.2812 71.7109 32.8574 71.7109 32.4004ZM72.7949 32.2656V32.4004C72.7949 32.7168 72.832 33.0156 72.9062 33.2969C72.9805 33.5742 73.0918 33.8203 73.2402 34.0352C73.3926 34.25 73.582 34.4199 73.8086 34.5449C74.0352 34.666 74.2988 34.7266 74.5996 34.7266C74.8965 34.7266 75.1562 34.666 75.3789 34.5449C75.6055 34.4199 75.793 34.25 75.9414 34.0352C76.0898 33.8203 76.2012 33.5742 76.2754 33.2969C76.3535 33.0156 76.3926 32.7168 76.3926 32.4004V32.2656C76.3926 31.9531 76.3535 31.6582 76.2754 31.3809C76.2012 31.0996 76.0879 30.8516 75.9355 30.6367C75.7871 30.418 75.5996 30.2461 75.373 30.1211C75.1504 29.9961 74.8887 29.9336 74.5879 29.9336C74.291 29.9336 74.0293 29.9961 73.8027 30.1211C73.5801 30.2461 73.3926 30.418 73.2402 30.6367C73.0918 30.8516 72.9805 31.0996 72.9062 31.3809C72.832 31.6582 72.7949 31.9531 72.7949 32.2656ZM79.9258 30.1562V35.5H78.8418V29.1602H79.8965L79.9258 30.1562ZM81.9062 29.125L81.9004 30.1328C81.8105 30.1133 81.7246 30.1016 81.6426 30.0977C81.5645 30.0898 81.4746 30.0859 81.373 30.0859C81.123 30.0859 80.9023 30.125 80.7109 30.2031C80.5195 30.2812 80.3574 30.3906 80.2246 30.5312C80.0918 30.6719 79.9863 30.8398 79.9082 31.0352C79.834 31.2266 79.7852 31.4375 79.7617 31.668L79.457 31.8438C79.457 31.4609 79.4941 31.1016 79.5684 30.7656C79.6465 30.4297 79.7656 30.1328 79.9258 29.875C80.0859 29.6133 80.2891 29.4102 80.5352 29.2656C80.7852 29.1172 81.082 29.043 81.4258 29.043C81.5039 29.043 81.5938 29.0527 81.6953 29.0723C81.7969 29.0879 81.8672 29.1055 81.9062 29.125ZM91.6211 30.6367V31.5566H87.0039V30.6367H91.6211ZM87.1797 26.9688V35.5H86.0488V26.9688H87.1797ZM92.6055 26.9688V35.5H91.4805V26.9688H92.6055ZM94.1641 32.4004V32.2656C94.1641 31.8086 94.2305 31.3848 94.3633 30.9941C94.4961 30.5996 94.6875 30.2578 94.9375 29.9688C95.1875 29.6758 95.4902 29.4492 95.8457 29.2891C96.2012 29.125 96.5996 29.043 97.041 29.043C97.4863 29.043 97.8867 29.125 98.2422 29.2891C98.6016 29.4492 98.9062 29.6758 99.1562 29.9688C99.4102 30.2578 99.6035 30.5996 99.7363 30.9941C99.8691 31.3848 99.9355 31.8086 99.9355 32.2656V32.4004C99.9355 32.8574 99.8691 33.2812 99.7363 33.6719C99.6035 34.0625 99.4102 34.4043 99.1562 34.6973C98.9062 34.9863 98.6035 35.2129 98.248 35.377C97.8965 35.5371 97.498 35.6172 97.0527 35.6172C96.6074 35.6172 96.207 35.5371 95.8516 35.377C95.4961 35.2129 95.1914 34.9863 94.9375 34.6973C94.6875 34.4043 94.4961 34.0625 94.3633 33.6719C94.2305 33.2812 94.1641 32.8574 94.1641 32.4004ZM95.248 32.2656V32.4004C95.248 32.7168 95.2852 33.0156 95.3594 33.2969C95.4336 33.5742 95.5449 33.8203 95.6934 34.0352C95.8457 34.25 96.0352 34.4199 96.2617 34.5449C96.4883 34.666 96.752 34.7266 97.0527 34.7266C97.3496 34.7266 97.6094 34.666 97.832 34.5449C98.0586 34.4199 98.2461 34.25 98.3945 34.0352C98.543 33.8203 98.6543 33.5742 98.7285 33.2969C98.8066 33.0156 98.8457 32.7168 98.8457 32.4004V32.2656C98.8457 31.9531 98.8066 31.6582 98.7285 31.3809C98.6543 31.0996 98.541 30.8516 98.3887 30.6367C98.2402 30.418 98.0527 30.2461 97.8262 30.1211C97.6035 29.9961 97.3418 29.9336 97.041 29.9336C96.7441 29.9336 96.4824 29.9961 96.2559 30.1211C96.0332 30.2461 95.8457 30.418 95.6934 30.6367C95.5449 30.8516 95.4336 31.0996 95.3594 31.3809C95.2852 31.6582 95.248 31.9531 95.248 32.2656ZM102.373 30.4199V35.5H101.283V29.1602H102.314L102.373 30.4199ZM102.15 32.0898L101.646 32.0723C101.65 31.6387 101.707 31.2383 101.816 30.8711C101.926 30.5 102.088 30.1777 102.303 29.9043C102.518 29.6309 102.785 29.4199 103.105 29.2715C103.426 29.1191 103.797 29.043 104.219 29.043C104.516 29.043 104.789 29.0859 105.039 29.1719C105.289 29.2539 105.506 29.3848 105.689 29.5645C105.873 29.7441 106.016 29.9746 106.117 30.2559C106.219 30.5371 106.27 30.877 106.27 31.2754V35.5H105.186V31.3281C105.186 30.9961 105.129 30.7305 105.016 30.5312C104.906 30.332 104.75 30.1875 104.547 30.0977C104.344 30.0039 104.105 29.957 103.832 29.957C103.512 29.957 103.244 30.0137 103.029 30.127C102.814 30.2402 102.643 30.3965 102.514 30.5957C102.385 30.7949 102.291 31.0234 102.232 31.2812C102.178 31.5352 102.15 31.8047 102.15 32.0898ZM106.258 31.4922L105.531 31.7148C105.535 31.3672 105.592 31.0332 105.701 30.7129C105.814 30.3926 105.977 30.1074 106.188 29.8574C106.402 29.6074 106.666 29.4102 106.979 29.2656C107.291 29.1172 107.648 29.043 108.051 29.043C108.391 29.043 108.691 29.0879 108.953 29.1777C109.219 29.2676 109.441 29.4062 109.621 29.5938C109.805 29.7773 109.943 30.0137 110.037 30.3027C110.131 30.5918 110.178 30.9355 110.178 31.334V35.5H109.088V31.3223C109.088 30.9668 109.031 30.6914 108.918 30.4961C108.809 30.2969 108.652 30.1582 108.449 30.0801C108.25 29.998 108.012 29.957 107.734 29.957C107.496 29.957 107.285 29.998 107.102 30.0801C106.918 30.1621 106.764 30.2754 106.639 30.4199C106.514 30.5605 106.418 30.7227 106.352 30.9062C106.289 31.0898 106.258 31.2852 106.258 31.4922ZM114.449 35.6172C114.008 35.6172 113.607 35.543 113.248 35.3945C112.893 35.2422 112.586 35.0293 112.328 34.7559C112.074 34.4824 111.879 34.1582 111.742 33.7832C111.605 33.4082 111.537 32.998 111.537 32.5527V32.3066C111.537 31.791 111.613 31.332 111.766 30.9297C111.918 30.5234 112.125 30.1797 112.387 29.8984C112.648 29.6172 112.945 29.4043 113.277 29.2598C113.609 29.1152 113.953 29.043 114.309 29.043C114.762 29.043 115.152 29.1211 115.48 29.2773C115.812 29.4336 116.084 29.6523 116.295 29.9336C116.506 30.2109 116.662 30.5391 116.764 30.918C116.865 31.293 116.916 31.7031 116.916 32.1484V32.6348H112.182V31.75H115.832V31.668C115.816 31.3867 115.758 31.1133 115.656 30.8477C115.559 30.582 115.402 30.3633 115.188 30.1914C114.973 30.0195 114.68 29.9336 114.309 29.9336C114.062 29.9336 113.836 29.9863 113.629 30.0918C113.422 30.1934 113.244 30.3457 113.096 30.5488C112.947 30.752 112.832 31 112.75 31.293C112.668 31.5859 112.627 31.9238 112.627 32.3066V32.5527C112.627 32.8535 112.668 33.1367 112.75 33.4023C112.836 33.6641 112.959 33.8945 113.119 34.0938C113.283 34.293 113.48 34.4492 113.711 34.5625C113.945 34.6758 114.211 34.7324 114.508 34.7324C114.891 34.7324 115.215 34.6543 115.48 34.498C115.746 34.3418 115.979 34.1328 116.178 33.8711L116.834 34.3926C116.697 34.5996 116.523 34.7969 116.312 34.9844C116.102 35.1719 115.842 35.3242 115.533 35.4414C115.229 35.5586 114.867 35.6172 114.449 35.6172ZM121.873 33.8184C121.873 33.6621 121.838 33.5176 121.768 33.3848C121.701 33.248 121.562 33.125 121.352 33.0156C121.145 32.9023 120.832 32.8047 120.414 32.7227C120.062 32.6484 119.744 32.5605 119.459 32.459C119.178 32.3574 118.938 32.2344 118.738 32.0898C118.543 31.9453 118.393 31.7754 118.287 31.5801C118.182 31.3848 118.129 31.1562 118.129 30.8945C118.129 30.6445 118.184 30.4082 118.293 30.1855C118.406 29.9629 118.564 29.7656 118.768 29.5938C118.975 29.4219 119.223 29.2871 119.512 29.1895C119.801 29.0918 120.123 29.043 120.479 29.043C120.986 29.043 121.42 29.1328 121.779 29.3125C122.139 29.4922 122.414 29.7324 122.605 30.0332C122.797 30.3301 122.893 30.6602 122.893 31.0234H121.809C121.809 30.8477 121.756 30.6777 121.65 30.5137C121.549 30.3457 121.398 30.207 121.199 30.0977C121.004 29.9883 120.764 29.9336 120.479 29.9336C120.178 29.9336 119.934 29.9805 119.746 30.0742C119.562 30.1641 119.428 30.2793 119.342 30.4199C119.26 30.5605 119.219 30.709 119.219 30.8652C119.219 30.9824 119.238 31.0879 119.277 31.1816C119.32 31.2715 119.395 31.3555 119.5 31.4336C119.605 31.5078 119.754 31.5781 119.945 31.6445C120.137 31.7109 120.381 31.7773 120.678 31.8438C121.197 31.9609 121.625 32.1016 121.961 32.2656C122.297 32.4297 122.547 32.6309 122.711 32.8691C122.875 33.1074 122.957 33.3965 122.957 33.7363C122.957 34.0137 122.898 34.2676 122.781 34.498C122.668 34.7285 122.502 34.9277 122.283 35.0957C122.068 35.2598 121.811 35.3887 121.51 35.4824C121.213 35.5723 120.879 35.6172 120.508 35.6172C119.949 35.6172 119.477 35.5176 119.09 35.3184C118.703 35.1191 118.41 34.8613 118.211 34.5449C118.012 34.2285 117.912 33.8945 117.912 33.543H119.002C119.018 33.8398 119.104 34.0762 119.26 34.252C119.416 34.4238 119.607 34.5469 119.834 34.6211C120.061 34.6914 120.285 34.7266 120.508 34.7266C120.805 34.7266 121.053 34.6875 121.252 34.6094C121.455 34.5312 121.609 34.4238 121.715 34.2871C121.82 34.1504 121.873 33.9941 121.873 33.8184Z" fill="#C1C7CD"/>
</svg>
